<svg width="144" height="188" viewBox="0 0 144 188" fill="none" xmlns="http://www.w3.org/2000/svg">
<path d="M88.1848 52.5586C85.5721 52.5586 83.4541 54.6443 83.4541 57.2171V85.4984C83.4541 88.0712 85.5721 90.157 88.1848 90.157H93.9959C96.6086 90.157 98.7268 88.0712 98.7268 85.4984V62.9393C98.7268 57.2062 94.007 52.5586 88.1848 52.5586Z" fill="#F995A1"/>
<path d="M88.1848 30H93.9959C96.6069 30 98.7267 32.0874 98.7267 34.6584V40.3807C98.7267 42.9518 96.6069 45.0393 93.9958 45.0393H88.1849C85.5739 45.0393 83.4541 42.9518 83.4541 40.3807V34.6586C83.454 32.0874 85.5738 30 88.1848 30Z" fill="#F995A1"/>
<path d="M60.5454 30H44.4242C36.4579 30 30 36.3594 30 44.2037V85.4984C30 88.0713 32.118 90.1568 34.7307 90.1568H40.5418C43.1547 90.1568 45.2726 88.0713 45.2726 85.4984V79.7762C45.2726 77.2033 47.3906 75.1178 50.0033 75.1178H55.8144C58.4271 75.1178 60.5451 77.2033 60.5451 79.7762V85.4984C60.5451 88.0713 62.6632 90.1568 65.2759 90.1568H71.087C73.6997 90.1568 75.8177 88.0713 75.8177 85.4984V45.0392C75.8179 36.7333 68.9801 30 60.5454 30ZM60.5454 55.4201C60.5454 57.9927 58.4273 60.0785 55.8146 60.0785H50.0035C47.3908 60.0785 45.2728 57.9927 45.2728 55.4201V49.6976C45.2728 47.125 47.3908 45.0392 50.0035 45.0392H55.8146C58.4273 45.0392 60.5454 47.125 60.5454 49.6976V55.4201Z" fill="#D13F3F"/>
<path d="M55.8145 97.6772H34.7308C32.1181 97.6772 30 99.7628 30 102.336V153.176C30 155.749 32.118 157.834 34.7307 157.834H55.8144C58.4272 157.834 60.5451 155.749 60.5451 153.176V147.454C60.5451 144.881 58.4271 142.795 55.8144 142.795H52.9089V142.795H49.0907C46.9821 142.795 45.2727 141.112 45.2727 139.035C45.2727 136.959 46.9821 135.275 49.0907 135.275H55.8145C58.4273 135.275 60.5452 133.19 60.5452 130.617V124.895C60.5452 122.322 58.4272 120.236 55.8145 120.236H52.909V120.236H49.0908C46.9822 120.236 45.2728 118.553 45.2728 116.476C45.2728 114.4 46.9822 112.717 49.0908 112.717H55.8167C58.4285 112.715 60.5454 110.63 60.5454 108.058V102.336C60.5454 99.7631 58.4273 97.6776 55.8146 97.6776L55.8145 97.6772Z" fill="#FFB522"/>
<path d="M98.7269 97.6772H72.9124C70.2997 97.6772 68.1816 99.7628 68.1816 102.336V153.176C68.1816 155.749 70.2997 157.834 72.9124 157.834H78.7235C81.3362 157.834 83.4542 155.749 83.4542 153.176V147.453C83.4542 144.881 85.5722 142.795 88.185 142.795H98.7268C107.162 142.795 113.999 136.062 113.999 127.756V112.716C113.999 104.411 107.162 97.6772 98.7268 97.6772H98.7269ZM98.7269 123.097C98.7269 125.67 96.6089 127.756 93.9962 127.756H88.1851C85.5723 127.756 83.4543 125.67 83.4543 123.097V117.375C83.4543 114.802 85.5723 112.716 88.1851 112.716H93.9962C96.6089 112.716 98.7269 114.802 98.7269 117.375V123.097Z" fill="#00682F"/>
</svg>
