<?xml version="1.0" encoding="UTF-8"?>
<svg id="Layer_2" data-name="Layer 2" xmlns="http://www.w3.org/2000/svg" viewBox="0 0 1521.618 579.663">
  <defs>
    <style>
      .cls-1 {
        fill: #ffb522;
      }

      .cls-2 {
        fill: #d13f3f;
      }

      .cls-3 {
        fill: #00682f;
      }

      .cls-4 {
        fill: #f995a1;
      }
    </style>
  </defs>
  <g id="logo">
    <g>
      <g>
        <path class="cls-4" d="M552.094,217.371c-24.791,0-44.888,20.098-44.888,44.889v272.514c0,24.791,20.097,44.889,44.888,44.889h55.139c24.791,0,44.889-20.098,44.889-44.889v-217.376c0-55.243-44.784-100.027-100.028-100.027Z"/>
        <path class="cls-4" d="M552.095,0h55.139c24.774,0,44.888,20.114,44.888,44.888v55.139c0,24.775-20.114,44.889-44.889,44.889h-55.137c-24.775,0-44.889-20.114-44.889-44.889v-55.137C507.206,20.114,527.32,0,552.095,0Z"/>
      </g>
      <path class="cls-2" d="M289.832,0h-152.967C61.276,0,0,61.278,0,136.865v397.909c0,24.792,20.097,44.888,44.888,44.888h55.139c24.792,0,44.888-20.096,44.888-44.888v-55.138c0-24.792,20.097-44.888,44.888-44.888h55.139c24.791,0,44.888,20.096,44.888,44.888v55.138c0,24.792,20.097,44.888,44.888,44.888h55.139c24.791,0,44.888-20.096,44.888-44.888V144.915C434.747,64.881,369.866,0,289.832,0ZM289.832,244.944c0,24.789-20.097,44.888-44.888,44.888h-55.139c-24.791,0-44.888-20.099-44.888-44.888v-55.141c0-24.789,20.097-44.888,44.888-44.888h55.139c24.791,0,44.888,20.099,44.888,44.888v55.141Z"/>
      <path class="cls-1" d="M969.523,0h-200.054c-24.791,0-44.888,20.096-44.888,44.888v489.886c0,24.792,20.097,44.888,44.888,44.888h200.054c24.792,0,44.888-20.096,44.888-44.888v-55.138c0-24.792-20.097-44.888-44.888-44.888h-27.569v-.003h-36.229c-20.008,0-36.228-16.219-36.228-36.228s16.22-36.228,36.228-36.228h63.799c24.792,0,44.888-20.096,44.888-44.888v-55.138c0-24.792-20.097-44.888-44.888-44.888h-27.569v-.003h-36.229c-20.008,0-36.228-16.219-36.228-36.228s16.22-36.228,36.228-36.228h63.819c24.782-.011,44.868-20.104,44.868-44.888v-55.138c0-24.792-20.097-44.888-44.888-44.888Z"/>
      <path class="cls-3" d="M1376.702,0h-244.943c-24.791,0-44.888,20.096-44.888,44.888v489.886c0,24.792,20.097,44.888,44.888,44.888h55.139c24.791,0,44.888-20.096,44.888-44.888v-55.138c0-24.792,20.097-44.888,44.888-44.888h100.027c80.035,0,144.916-64.881,144.916-144.915v-144.918c0-80.034-64.881-144.915-144.916-144.915ZM1376.702,244.944c0,24.789-20.097,44.888-44.888,44.888h-55.139c-24.791,0-44.888-20.099-44.888-44.888v-55.141c0-24.789,20.097-44.888,44.888-44.888h55.139c24.791,0,44.888,20.099,44.888,44.888v55.141Z"/>
    </g>
  </g>
</svg>