<svg width="80" height="122" viewBox="0 0 80 122" fill="none" xmlns="http://www.w3.org/2000/svg">
<path d="M55.4151 21.4844C52.9268 21.4844 50.9097 23.4709 50.9097 25.9212V52.8558C50.9097 55.3061 52.9268 57.2925 55.4151 57.2925H60.9495C63.4378 57.2925 65.4551 55.3061 65.4551 52.8558V31.3709C65.4551 25.9108 60.9601 21.4844 55.4151 21.4844Z" fill="#E7E4DC"/>
<path d="M55.4151 21.4844C52.9268 21.4844 50.9097 23.4709 50.9097 25.9212V52.8558C50.9097 55.3061 52.9268 57.2925 55.4151 57.2925H60.9495C63.4378 57.2925 65.4551 55.3061 65.4551 52.8558V31.3709C65.4551 25.9108 60.9601 21.4844 55.4151 21.4844Z" fill="#F5F3EE"/>
<path d="M55.4151 0H60.9495C63.4361 0 65.455 1.98802 65.455 4.43662V9.88642C65.455 12.3351 63.4361 14.3231 60.9494 14.3231H55.4152C52.9285 14.3231 50.9097 12.3351 50.9097 9.88642V4.43682C50.9096 1.98802 52.9284 0 55.4151 0Z" fill="#E7E4DC"/>
<path d="M55.4151 0H60.9495C63.4361 0 65.455 1.98802 65.455 4.43662V9.88642C65.455 12.3351 63.4361 14.3231 60.9494 14.3231H55.4152C52.9285 14.3231 50.9097 12.3351 50.9097 9.88642V4.43682C50.9096 1.98802 52.9284 0 55.4151 0Z" fill="#F5F3EE"/>
<path d="M29.0908 0H13.7373C6.15036 0 0 6.05657 0 13.5274V52.8558C0 55.3061 2.01716 57.2924 4.50547 57.2924H10.0398C12.5283 57.2924 14.5453 55.3061 14.5453 52.8558V47.4061C14.5453 44.9557 16.5625 42.9694 19.0508 42.9694H24.5852C27.0735 42.9694 29.0906 44.9557 29.0906 47.4061V52.8558C29.0906 55.3061 31.1078 57.2924 33.5961 57.2924H39.1305C41.6188 57.2924 43.6359 55.3061 43.6359 52.8558V14.323C43.6361 6.41268 37.124 0 29.0908 0ZM29.0908 24.2097C29.0908 26.6598 27.0737 28.6463 24.5854 28.6463H19.051C16.5627 28.6463 14.5455 26.6598 14.5455 24.2097V18.7597C14.5455 16.3096 16.5627 14.323 19.051 14.323H24.5854C27.0737 14.323 29.0908 16.3096 29.0908 18.7597V24.2097Z" fill="#E7E4DC"/>
<path d="M29.0908 0H13.7373C6.15036 0 0 6.05657 0 13.5274V52.8558C0 55.3061 2.01716 57.2924 4.50547 57.2924H10.0398C12.5283 57.2924 14.5453 55.3061 14.5453 52.8558V47.4061C14.5453 44.9557 16.5625 42.9694 19.0508 42.9694H24.5852C27.0735 42.9694 29.0906 44.9557 29.0906 47.4061V52.8558C29.0906 55.3061 31.1078 57.2924 33.5961 57.2924H39.1305C41.6188 57.2924 43.6359 55.3061 43.6359 52.8558V14.323C43.6361 6.41268 37.124 0 29.0908 0ZM29.0908 24.2097C29.0908 26.6598 27.0737 28.6463 24.5854 28.6463H19.051C16.5627 28.6463 14.5455 26.6598 14.5455 24.2097V18.7597C14.5455 16.3096 16.5627 14.323 19.051 14.323H24.5854C27.0737 14.323 29.0908 16.3096 29.0908 18.7597V24.2097Z" fill="#F5F3EE"/>
<path d="M24.5853 64.4547H4.50557C2.01726 64.4547 0 66.4409 0 68.8914V117.311C0 119.761 2.01716 121.747 4.50547 121.747H24.5852C27.0736 121.747 29.0906 119.761 29.0906 117.311V111.861C29.0906 109.41 27.0735 107.424 24.5852 107.424H21.818V107.424H18.1817C16.1734 107.424 14.5454 105.821 14.5454 103.843C14.5454 101.866 16.1734 100.263 18.1817 100.263H24.5853C27.0737 100.263 29.0907 98.2763 29.0907 95.8259V90.3762C29.0907 87.9259 27.0736 85.9396 24.5853 85.9396H21.8181V85.9393H18.1818C16.1735 85.9393 14.5455 84.3363 14.5455 82.3586C14.5455 80.381 16.1735 78.778 18.1818 78.778H24.5874C27.0748 78.7769 29.0908 76.7909 29.0908 74.3413V68.8916C29.0908 66.4412 27.0737 64.455 24.5854 64.455L24.5853 64.4547Z" fill="#E7E4DC"/>
<path d="M24.5853 64.4547H4.50557C2.01726 64.4547 0 66.4409 0 68.8914V117.311C0 119.761 2.01716 121.747 4.50547 121.747H24.5852C27.0736 121.747 29.0906 119.761 29.0906 117.311V111.861C29.0906 109.41 27.0735 107.424 24.5852 107.424H21.818V107.424H18.1817C16.1734 107.424 14.5454 105.821 14.5454 103.843C14.5454 101.866 16.1734 100.263 18.1817 100.263H24.5853C27.0737 100.263 29.0907 98.2763 29.0907 95.8259V90.3762C29.0907 87.9259 27.0736 85.9396 24.5853 85.9396H21.8181V85.9393H18.1818C16.1735 85.9393 14.5455 84.3363 14.5455 82.3586C14.5455 80.381 16.1735 78.778 18.1818 78.778H24.5874C27.0748 78.7769 29.0908 76.7909 29.0908 74.3413V68.8916C29.0908 66.4412 27.0737 64.455 24.5854 64.455L24.5853 64.4547Z" fill="#F5F3EE"/>
<path d="M65.4545 64.4547H40.8692C38.3809 64.4547 36.3638 66.441 36.3638 68.8913V117.31C36.3638 119.761 38.3809 121.747 40.8692 121.747H46.4036C48.8919 121.747 50.9091 119.761 50.9091 117.31V111.861C50.9091 109.41 52.9262 107.424 55.4146 107.424H65.4544C73.4876 107.424 79.9998 101.011 79.9998 93.1011V78.7778C79.9998 70.8674 73.4876 64.4547 65.4544 64.4547H65.4545ZM65.4545 88.6644C65.4545 91.1145 63.4373 93.101 60.949 93.101H55.4147C52.9263 93.101 50.9092 91.1145 50.9092 88.6644V83.2144C50.9092 80.7643 52.9263 78.7778 55.4147 78.7778H60.949C63.4373 78.7778 65.4545 80.7643 65.4545 83.2144V88.6644Z" fill="#E7E4DC"/>
<path d="M65.4545 64.4547H40.8692C38.3809 64.4547 36.3638 66.441 36.3638 68.8913V117.31C36.3638 119.761 38.3809 121.747 40.8692 121.747H46.4036C48.8919 121.747 50.9091 119.761 50.9091 117.31V111.861C50.9091 109.41 52.9262 107.424 55.4146 107.424H65.4544C73.4876 107.424 79.9998 101.011 79.9998 93.1011V78.7778C79.9998 70.8674 73.4876 64.4547 65.4544 64.4547H65.4545ZM65.4545 88.6644C65.4545 91.1145 63.4373 93.101 60.949 93.101H55.4147C52.9263 93.101 50.9092 91.1145 50.9092 88.6644V83.2144C50.9092 80.7643 52.9263 78.7778 55.4147 78.7778H60.949C63.4373 78.7778 65.4545 80.7643 65.4545 83.2144V88.6644Z" fill="#F5F3EE"/>
</svg>
