<?xml version="1.0" encoding="UTF-8"?>
<svg id="Layer_1" data-name="Layer 1" xmlns="http://www.w3.org/2000/svg" viewBox="0 0 750 250">
  <defs>
    <style>
      .cls-1 {
        fill: #c8102e;
      }
    </style>
  </defs>
  <g>
    <g>
      <path d="M27.561,125.259c-1.007,0-2.015-.384-2.785-1.152-1.541-1.538-1.543-4.034-.005-5.575,9.978-9.997,13.967-24.679,10.409-38.318-1.793-6.872-5.39-13.15-10.404-18.154-1.541-1.538-1.543-4.034-.005-5.575,1.538-1.542,4.034-1.543,5.575-.005,6.007,5.995,10.316,13.515,12.463,21.745,4.259,16.331-.514,33.91-12.458,45.877-.77.771-1.78,1.157-2.79,1.157Z"/>
      <path d="M15.49,113.188c-1.008,0-2.015-.384-2.785-1.152-1.541-1.538-1.543-4.034-.005-5.575,5.713-5.724,7.997-14.13,5.96-21.938-1.026-3.934-3.086-7.528-5.956-10.393-1.541-1.538-1.543-4.034-.005-5.574,1.538-1.541,4.034-1.543,5.575-.005,3.863,3.857,6.634,8.692,8.014,13.983,2.739,10.501-.33,21.804-8.01,29.498-.77.771-1.78,1.157-2.79,1.157Z"/>
    </g>
    <g>
      <path d="M50.259,68.137c1.069-3.4,2.383-6.724,3.933-9.946-2.964-5.322-6.654-10.234-10.993-14.565-1.541-1.537-4.037-1.536-5.575.005-1.538,1.541-1.536,4.037.005,5.575,5.43,5.42,9.716,11.867,12.63,18.93Z"/>
      <path d="M50.21,112.462c-2.875,6.979-7.11,13.437-12.586,18.923-1.538,1.541-1.536,4.037.005,5.575.77.768,1.777,1.152,2.785,1.152s2.02-.386,2.79-1.157c4.357-4.365,8.015-9.275,10.942-14.547-1.548-3.207-2.862-6.532-3.936-9.946Z"/>
    </g>
    <g>
      <path d="M162.975,36.191h20.378c4.208,0,7.214,1.022,9.318,3.247,1.743,1.923,2.825,4.628,2.825,7.273,0,2.405-.842,4.689-2.405,6.312-1.203,1.262-2.164,1.804-4.328,2.465,5.11,1.262,7.755,4.388,7.755,9.378,0,3.907-1.743,7.574-4.448,9.378-2.164,1.442-5.17,2.044-9.979,2.044h-19.116v-40.096ZM179.987,51.581c2.465,0,3.908-1.262,3.908-3.487,0-2.104-1.443-3.306-4.088-3.306h-5.47v6.792h5.651ZM180.348,67.33c2.585,0,4.268-1.382,4.268-3.606,0-2.285-1.743-3.607-4.689-3.607h-5.59v7.214h6.011Z"/>
      <path d="M230.246,76.288h-10.821v-4.929c-1.563,3.666-4.689,5.53-9.257,5.53-5.771,0-8.957-3.247-8.957-9.138v-21.341h11.722v18.816c0,2.404.541,3.186,2.344,3.186,2.104,0,3.427-1.563,3.427-4.088v-17.914h11.542v29.877Z"/>
      <path d="M236.381,76.288v-29.877h9.738v6.192c1.443-4.869,3.607-6.733,7.935-6.733.481,0,.842,0,1.563.12v10.4c-1.022-.24-1.503-.301-2.224-.301-3.908,0-5.771,2.044-5.771,6.492v13.706h-11.241Z"/>
      <path d="M276.659,76.288v-18.815c0-2.585-.661-3.607-2.465-3.607-2.224,0-3.246,1.443-3.246,4.449v17.974h-11.722v-29.877h10.881v4.209c.901-1.623,1.503-2.344,2.585-3.126,1.443-1.022,3.847-1.683,6.132-1.683,2.825,0,5.41.962,7.154,2.525,1.923,1.804,2.404,3.547,2.404,8.837v19.116h-11.722Z"/>
      <path d="M325.175,66.309c-1.563,6.613-7.395,10.581-15.51,10.581-9.919,0-16.712-6.132-16.712-15.149,0-4.328,1.804-8.776,4.629-11.542,2.885-2.825,7.093-4.388,11.782-4.388,9.619,0,15.87,6.372,15.87,16.17,0,.301,0,1.023-.06,1.744h-19.959c0,2.344.18,3.126.842,3.968.782,1.022,2.045,1.563,3.728,1.563,2.644,0,3.847-.962,4.509-3.667l10.881.721ZM313.513,57.833c-.12-3.607-1.323-5.11-4.148-5.11-2.765,0-4.208,1.683-4.208,5.11h8.356Z"/>
      <path d="M336.6,66.549c.721,2.344,2.465,3.246,6.252,3.246,2.885,0,4.569-.661,4.569-1.804s-.842-1.442-6.252-2.164c-3.487-.48-6.492-1.382-8.416-2.464-2.465-1.323-4.028-4.208-4.028-7.274,0-6.252,5.53-10.279,14.067-10.279,6.973,0,11.662,2.705,13.645,7.815l-8.897,1.683c-.961-1.864-2.525-2.645-5.23-2.645-2.104,0-3.667.661-3.667,1.623,0,.421.301.842.842,1.142.661.361,1.142.481,5.952,1.022,4.388.542,6.492,1.142,8.476,2.465,2.465,1.683,3.847,4.268,3.847,7.334,0,6.613-5.83,10.64-15.449,10.64-8.055,0-12.864-2.946-14.968-9.078l9.257-1.262Z"/>
      <path d="M410.545,61.68c-.661,4.989-1.804,7.574-4.509,10.4-3.066,3.186-7.274,4.809-12.324,4.809-11.122,0-18.215-7.875-18.215-20.319,0-6.612,1.984-12.383,5.59-16.171,3.066-3.186,7.395-4.809,12.745-4.809,6.673,0,11.542,2.645,14.367,7.754,1.382,2.465,1.983,4.509,2.344,8.296l-11.422.661c-.06-2.285-.24-3.306-.842-4.629-.781-1.804-2.464-3.006-4.388-3.006-2.044,0-3.847,1.443-4.689,3.727-.782,2.044-1.082,4.449-1.082,8.235,0,7.755,1.743,11.001,5.771,11.001,3.246,0,5.049-2.164,5.41-6.673l11.242.722Z"/>
      <path d="M445.534,66.309c-1.563,6.613-7.395,10.581-15.51,10.581-9.919,0-16.712-6.132-16.712-15.149,0-4.328,1.804-8.776,4.629-11.542,2.885-2.825,7.093-4.388,11.782-4.388,9.619,0,15.87,6.372,15.87,16.17,0,.301,0,1.023-.06,1.744h-19.958c0,2.344.18,3.126.842,3.968.782,1.022,2.044,1.563,3.728,1.563,2.644,0,3.847-.962,4.509-3.667l10.881.721ZM433.872,57.833c-.12-3.607-1.323-5.11-4.148-5.11-2.765,0-4.208,1.683-4.208,5.11h8.356Z"/>
      <path d="M467.599,76.288v-18.815c0-2.585-.661-3.607-2.465-3.607-2.224,0-3.247,1.443-3.247,4.449v17.974h-11.722v-29.877h10.881v4.209c.902-1.623,1.503-2.344,2.585-3.126,1.442-1.022,3.847-1.683,6.131-1.683,2.825,0,5.411.962,7.154,2.525,1.924,1.804,2.405,3.547,2.405,8.837v19.116h-11.722Z"/>
      <path d="M503.91,54.046h-5.952v11.001c0,2.284.661,3.066,2.705,3.066.902,0,2.044-.18,3.247-.481v8.356c-2.706.481-4.449.661-6.733.661-4.028,0-6.311-.721-8.115-2.525-1.503-1.503-2.164-3.066-2.344-5.711q-.06-.782-.06-4.99v-9.378h-4.449v-7.635h4.99l.781-9.558,10.22-.361-.241,9.919h5.952v7.635Z"/>
      <path d="M538.417,66.309c-1.563,6.613-7.395,10.581-15.51,10.581-9.919,0-16.712-6.132-16.712-15.149,0-4.328,1.804-8.776,4.629-11.542,2.885-2.825,7.093-4.388,11.782-4.388,9.619,0,15.87,6.372,15.87,16.17,0,.301,0,1.023-.06,1.744h-19.958c0,2.344.18,3.126.842,3.968.782,1.022,2.044,1.563,3.728,1.563,2.644,0,3.847-.962,4.509-3.667l10.881.721ZM526.755,57.833c-.12-3.607-1.323-5.11-4.148-5.11-2.765,0-4.208,1.683-4.208,5.11h8.356Z"/>
      <path d="M543.048,76.288v-29.877h9.739v6.192c1.442-4.869,3.606-6.733,7.935-6.733.481,0,.842,0,1.563.12v10.4c-1.022-.24-1.503-.301-2.224-.301-3.907,0-5.771,2.044-5.771,6.492v13.706h-11.242Z"/>
      <path d="M175.178,136.207h-11.061v-22.242h-4.448v-7.635h4.448c0-5.049.241-6.372,1.623-8.416,1.803-2.645,4.689-3.787,9.799-3.787,2.885,0,5.29.241,8.476.782v7.574q-4.208-.48-5.29-.48c-2.645,0-3.667.901-3.667,3.366v.961h7.634v7.635h-7.514v22.242Z"/>
      <path d="M217.08,121.359c0,9.017-6.913,15.45-16.592,15.45-9.378,0-16.171-6.492-16.171-15.45,0-9.077,6.853-15.629,16.411-15.629,9.739,0,16.351,6.312,16.351,15.629ZM196.762,121.299c0,6.132,1.082,8.416,3.847,8.416,1.623,0,2.705-.661,3.186-1.984.481-1.442.842-4.087.842-6.673,0-5.83-1.082-7.995-3.908-7.995-2.765,0-3.967,2.404-3.967,8.235Z"/>
      <path d="M221.592,136.207v-29.877h9.738v6.192c1.443-4.869,3.607-6.733,7.935-6.733.481,0,.842,0,1.563.12v10.4c-1.022-.24-1.503-.301-2.224-.301-3.908,0-5.771,2.044-5.771,6.492v13.706h-11.241Z"/>
      <path d="M267.222,122.561c1.262,3.487,3.246,4.809,7.454,4.809,2.945,0,4.568-.901,4.568-2.525,0-1.683-1.262-2.525-4.869-3.186-4.869-.962-8.296-2.044-10.941-3.426-3.547-1.804-5.59-5.35-5.59-9.559,0-7.935,6.492-13.164,16.471-13.164,8.235,0,13.766,3.306,16.35,9.859l-10.219,3.066c-1.142-2.825-3.066-4.028-6.432-4.028-2.465,0-3.968.962-3.968,2.525,0,1.503,1.022,2.164,4.449,2.885,7.454,1.563,9.017,2.044,11.602,3.427,3.487,1.923,5.651,5.711,5.651,9.978,0,8.176-7.154,13.586-17.974,13.586-5.832,0-10.46-1.623-13.887-4.87-2.044-1.983-3.066-3.787-4.088-7.333l11.422-2.044Z"/>
      <path d="M327.34,121.359c0,9.017-6.913,15.45-16.591,15.45-9.378,0-16.171-6.492-16.171-15.45,0-9.077,6.853-15.629,16.411-15.629,9.738,0,16.351,6.312,16.351,15.629ZM307.021,121.299c0,6.132,1.083,8.416,3.848,8.416,1.623,0,2.706-.661,3.186-1.984.481-1.442.842-4.087.842-6.673,0-5.83-1.082-7.995-3.907-7.995-2.765,0-3.968,2.404-3.968,8.235Z"/>
      <path d="M359.805,125.026c-.541,3.306-1.322,5.17-3.066,7.214-2.705,3.126-6.252,4.569-11.181,4.569-4.328,0-7.514-1.142-10.34-3.667-3.186-2.886-4.929-6.973-4.929-11.662,0-9.318,6.312-15.75,15.51-15.75,4.147,0,7.634,1.323,10.279,4.028,2.164,2.224,3.066,4.208,3.607,7.815l-10.219.901c-.301-1.683-.361-1.924-.601-2.585-.481-1.383-1.563-2.164-3.006-2.164-2.585,0-3.607,2.224-3.607,7.695,0,5.049,1.142,7.153,3.787,7.153,2.164,0,3.366-1.323,3.787-4.388l9.978.842Z"/>
      <path d="M375.016,104.166h-11.722v-9.257h11.722v9.257ZM375.016,136.207h-11.722v-29.877h11.722v29.877Z"/>
      <path d="M400.146,136.207c-.361-1.683-.421-2.645-.421-4.148-2.404,3.306-5.23,4.749-9.618,4.749-6.312,0-10.52-3.547-10.52-8.898,0-4.147,2.825-7.695,7.454-9.197,3.366-1.082,7.273-1.683,12.083-1.923v-.721c0-2.344-.962-3.247-3.547-3.247-2.645,0-4.148,1.082-4.509,3.247l-10.64-.962c.842-3.186,1.924-4.869,4.148-6.433,2.885-2.044,6.372-2.945,11.362-2.945,6.011,0,10.52,1.503,12.684,4.148,1.442,1.743,1.743,3.306,1.743,8.596v11.902c0,2.645.12,3.607.901,5.831h-11.121ZM399.124,122.261c-5.049.541-7.454,2.104-7.454,4.749,0,1.683,1.082,2.705,2.946,2.705,3.186,0,4.509-1.743,4.509-6.071v-1.382Z"/>
      <path d="M427.981,136.207h-11.542v-40.096h11.542v40.096Z"/>
      <path d="M482.869,121.6c-.661,4.99-1.804,7.574-4.509,10.4-3.066,3.186-7.274,4.809-12.324,4.809-11.122,0-18.215-7.875-18.215-20.319,0-6.612,1.984-12.383,5.59-16.171,3.066-3.186,7.395-4.809,12.745-4.809,6.673,0,11.542,2.645,14.367,7.754,1.382,2.465,1.983,4.509,2.344,8.296l-11.422.661c-.06-2.285-.24-3.306-.842-4.629-.781-1.804-2.464-3.006-4.388-3.006-2.044,0-3.847,1.443-4.689,3.727-.782,2.044-1.082,4.449-1.082,8.235,0,7.755,1.743,11.001,5.771,11.001,3.246,0,5.049-2.164,5.41-6.673l11.242.722Z"/>
      <path d="M504.573,136.207v-17.974c0-2.405-.061-2.706-.481-3.367-.421-.601-1.202-.961-2.104-.961-1.503,0-2.825.961-3.186,2.284q-.12.601-.12,3.126v16.892h-11.722v-40.096h11.722v13.767c2.225-2.886,4.749-4.148,8.236-4.148,3.306,0,6.011,1.142,7.695,3.306,1.382,1.803,1.683,3.066,1.683,7.754v19.417h-11.722Z"/>
      <path d="M541.486,136.207c-.361-1.683-.421-2.645-.421-4.148-2.404,3.306-5.23,4.749-9.618,4.749-6.312,0-10.52-3.547-10.52-8.898,0-4.147,2.825-7.695,7.454-9.197,3.366-1.082,7.273-1.683,12.083-1.923v-.721c0-2.344-.962-3.247-3.547-3.247-2.645,0-4.148,1.082-4.509,3.247l-10.64-.962c.842-3.186,1.924-4.869,4.148-6.433,2.885-2.044,6.372-2.945,11.362-2.945,6.011,0,10.52,1.503,12.684,4.148,1.442,1.743,1.743,3.306,1.743,8.596v11.902c0,2.645.12,3.607.901,5.831h-11.121ZM540.464,122.261c-5.049.541-7.454,2.104-7.454,4.749,0,1.683,1.082,2.705,2.946,2.705,3.186,0,4.509-1.743,4.509-6.071v-1.382Z"/>
      <path d="M575.213,136.207v-18.815c0-2.585-.661-3.607-2.465-3.607-2.224,0-3.247,1.443-3.247,4.449v17.974h-11.722v-29.877h10.881v4.209c.902-1.623,1.503-2.344,2.585-3.126,1.442-1.022,3.847-1.683,6.131-1.683,2.825,0,5.411.962,7.154,2.525,1.924,1.804,2.405,3.547,2.405,8.837v19.116h-11.722Z"/>
      <path d="M624.209,107.593c-1.744-.12-2.405-.18-2.825-.18-1.924,0-2.705.24-3.306,1.142,2.164,1.743,3.366,4.208,3.366,6.853,0,5.771-4.929,9.017-13.706,9.017q-.361,0-2.224-.12h-.361c-2.044,0-2.885.42-2.885,1.442,0,.962.601,1.323,2.525,1.383l9.558.42c2.885.12,5.41.902,6.973,2.225,1.924,1.563,3.186,4.388,3.186,7.033,0,3.246-1.803,6.192-4.628,7.634-3.066,1.503-6.793,2.104-13.225,2.104-11.001,0-16.291-2.465-16.291-7.514,0-2.705,1.323-4.449,4.268-5.711-1.984-1.503-2.766-2.825-2.766-4.689,0-1.804.902-3.607,2.405-4.809.842-.661,1.503-1.022,3.366-1.804-3.487-1.683-4.809-3.547-4.809-6.913,0-5.952,5.41-9.438,14.488-9.438,2.224,0,3.426.12,5.59.661.842-4.869,3.126-7.033,7.394-7.033,1.142,0,1.623,0,4.208.241l-.3,8.055ZM604.371,135.847c-.42-.061-.962-.061-1.262-.061-2.285,0-3.066.481-3.066,1.864,0,1.983,2.285,2.765,8.055,2.765,4.749,0,6.132-.541,6.132-2.344,0-1.323-.721-1.804-2.705-1.923l-7.154-.301ZM603.83,115.228c0,2.344,1.262,3.667,3.487,3.667s3.487-1.323,3.487-3.607c0-2.344-1.263-3.727-3.427-3.727-2.224,0-3.547,1.382-3.547,3.667Z"/>
      <path d="M657.935,126.228c-1.563,6.613-7.395,10.581-15.51,10.581-9.919,0-16.712-6.132-16.712-15.149,0-4.328,1.804-8.776,4.629-11.542,2.885-2.825,7.093-4.388,11.782-4.388,9.619,0,15.87,6.372,15.87,16.17,0,.301,0,1.023-.06,1.744h-19.958c0,2.344.18,3.126.842,3.968.782,1.022,2.044,1.563,3.728,1.563,2.644,0,3.847-.962,4.509-3.667l10.881.721ZM646.273,117.753c-.12-3.607-1.323-5.11-4.148-5.11-2.765,0-4.208,1.683-4.208,5.11h8.356Z"/>
    </g>
    <g>
      <path class="cls-1" d="M76.801,138.113c-1.008,0-2.015-.384-2.785-1.152-8.29-8.274-14.238-18.652-17.2-30.01-5.879-22.539.709-46.802,17.195-63.319,1.538-1.542,4.034-1.543,5.575-.005,1.541,1.538,1.543,4.034.005,5.575-14.519,14.548-20.323,35.913-15.147,55.76,2.609,10.001,7.845,19.137,15.141,26.419,1.541,1.538,1.543,4.034.005,5.575-.77.771-1.78,1.157-2.79,1.157Z"/>
      <path class="cls-1" d="M89.655,125.259c-1.008,0-2.015-.384-2.785-1.152-6.007-5.995-10.317-13.515-12.463-21.744-4.26-16.331.514-33.91,12.458-45.877,1.538-1.541,4.034-1.543,5.575-.005,1.541,1.538,1.543,4.034.005,5.575-9.978,9.997-13.967,24.679-10.409,38.318,1.792,6.872,5.39,13.149,10.404,18.153,1.541,1.538,1.543,4.034.005,5.575-.77.771-1.78,1.157-2.79,1.157Z"/>
      <path class="cls-1" d="M101.725,113.188c-1.008,0-2.015-.383-2.785-1.152-3.863-3.856-6.635-8.69-8.015-13.983-2.739-10.501.33-21.804,8.01-29.498,1.538-1.542,4.034-1.543,5.575-.005,1.541,1.538,1.543,4.034.005,5.575-5.713,5.724-7.998,14.131-5.961,21.939,1.026,3.934,3.085,7.528,5.955,10.392,1.541,1.538,1.543,4.034.005,5.575-.77.771-1.78,1.157-2.79,1.157Z"/>
    </g>
  </g>
  <g>
    <path d="M724.527,207.384l9.496-21.05c1.859-4.139,2.463-5.048,4.429-5.556l-.002-1.412-9.937.018.002,1.412c3.28.7,3.636,2.364,2.129,5.898l-3.817,9.136-4.76-10.735c-1.013-2.369-.864-3.731,2.616-4.141l-.003-1.564-13.266.023.003,1.564c1.564.401,2.171,1.055,3.538,3.878l8.456,18.143-1.407,3.029c-.804,1.767-1.558,3.08-2.414,3.838-.609-2.067-1.771-3.175-3.587-3.171-1.816.003-3.377,1.217-3.373,3.587s1.924,4.133,4.194,4.129c3.228-.006,5.243-1.623,7.705-7.025M711.049,201.053l-.759-1.613c-1.361.608-2.571.912-3.63.914-2.371.004-2.978-1.205-2.981-2.87l-.027-15.182,6.406-.011-.005-2.875-6.406.011-.008-4.691-.908.002-9.069,5.968.003,1.614,3.682-.007.029,16.494c.006,3.279,1.875,5.041,5.557,5.034,2.875-.005,5.698-.968,8.116-2.789M691.883,201.793c-3.128-.448-3.583-1.103-3.588-3.878l-.034-19.318-2.472.004-7.406,4.855.002,1.11,3.581-.006.024,13.366c.005,2.774-.498,3.431-3.574,3.89l.003,1.564,13.467-.024-.003-1.564ZM684.673,174.82c2.118-.004,3.83-1.722,3.827-3.891-.003-1.917-1.469-3.478-3.436-3.474-2.219.004-3.881,1.722-3.877,3.84.003,1.967,1.469,3.528,3.487,3.525M675.883,195.97c-.008-4.691-3.895-6.147-7.528-7.3-3.583-1.154-6.056-1.906-6.061-4.529-.002-1.412,1.054-2.726,3.122-2.729,2.572-.005,4.845,1.555,7.574,4.627l1.31-.608-1.928-6.251h-.807s-.907.76-.907.76c-1.413-.603-3.028-.953-4.743-.95-5.347.009-8.821,3.092-8.813,7.733.008,4.691,3.895,6.046,7.528,7.25,3.583,1.204,6.056,1.906,6.061,4.579.003,1.665-1.256,2.928-3.677,2.932-3.379.006-5.956-2.209-9.04-6.138l-1.361.507,1.981,7.865.857-.002,1.461-1.062c1.666.804,3.533,1.255,5.601,1.251,5.145-.009,9.376-3.043,9.368-7.936M649.616,201.868c-3.28-.499-3.735-1.204-3.74-4.331l-.018-10.391c1.006-1.818,1.962-3.131,2.969-4.04.003,1.967,1.368,3.226,3.083,3.223,1.715-.003,3.377-1.368,3.372-3.991-.004-2.219-1.267-3.579-3.487-3.575-2.472.004-4.385,2.076-6.195,5.004l-.009-5.094-2.219.004-7.305,4.805.002,1.11,3.48-.006.024,13.417c.005,2.774-.448,3.481-3.322,3.89l.003,1.564,13.367-.024-.003-1.564ZM618.016,188.204c-.007-4.086,1.704-6.51,5.032-6.516,2.32-.004,3.786,1.658,4.397,4.935l-9.376,3.245c-.052-.555-.053-1.11-.054-1.664M633.823,198.92l-1.364-1.057c-1.359,1.566-3.425,2.629-5.796,2.633-4.64.008-7.27-3.518-8.236-8.106l15.123-5.071c-.312-5.346-4.252-8.265-9.245-8.256-7.011.012-12.146,5.671-12.133,12.682.012,6.961,4.46,12.249,12.278,12.235,4.792-.008,7.663-2.132,9.373-5.061M607.371,186.558c1.859-4.139,2.463-5.048,4.429-5.556l-.002-1.412-9.937.018.002,1.412c3.28.7,3.636,2.364,2.129,5.898l-3.817,9.136-4.76-10.735c-1.013-2.369-.864-3.731,2.616-4.141l-.003-1.564-13.266.023.003,1.564c1.564.401,2.221,1.055,3.538,3.878l8.658,18.698,2.623-.005,7.788-17.214ZM584.347,201.983c-3.128-.448-3.583-1.103-3.588-3.878l-.034-19.318-2.471.004-7.406,4.855.002,1.11,3.581-.006.024,13.366c.005,2.774-.498,3.431-3.574,3.89l.003,1.564,13.467-.024-.003-1.564ZM577.137,175.011c2.118-.004,3.83-1.722,3.827-3.891-.003-1.917-1.469-3.478-3.436-3.474-2.219.004-3.881,1.722-3.877,3.84.003,1.967,1.469,3.528,3.487,3.525M551.714,202.041c-2.876-.398-3.331-1.104-3.336-3.878l-.021-11.652c2.518-2.274,4.584-3.388,6.4-3.391,2.472-.004,3.18,1.255,3.184,3.525l.02,11.5c.005,2.774-.448,3.481-3.322,3.89l.003,1.564,12.963-.023-.003-1.564c-2.876-.398-3.331-1.104-3.336-3.878l-.021-12.055c-.007-4.035-1.727-6.907-6.822-6.898-3.127.006-6.201,1.928-9.222,4.505l-.009-4.842-2.32.004-7.305,4.805.002,1.11,3.48-.006.024,13.417c.005,2.774-.448,3.481-3.322,3.89l.003,1.564,12.963-.023-.003-1.564ZM496.682,172.48l.027,15.132c.017,9.785,5.124,16.586,17.986,16.563,12.862-.023,17.944-6.841,17.927-16.425l-.022-12.156c-.01-5.901,1.651-7.418,4.525-8.23l-.003-1.564-12.206.022.003,1.564c2.876.802,4.544,2.312,4.554,8.214l.022,12.156c.015,8.524-4.467,12.467-12.941,12.482-8.423.015-12.97-3.911-12.985-12.436l-.027-15.334c-.007-3.833,1.102-4.491,4.279-4.951l-.003-1.665-15.334.027.003,1.665c3.178.448,4.188,1.102,4.195,4.936"/>
    <path d="M456.28,202.222c-2.876-.398-3.331-1.104-3.336-3.878l-.021-11.652c2.518-2.274,4.584-3.388,6.4-3.391,2.472-.004,3.18,1.255,3.184,3.525l.02,11.5c.005,2.774-.448,3.481-3.322,3.89l.003,1.564,12.963-.023-.003-1.564c-2.876-.398-3.331-1.104-3.336-3.878l-.021-12.055c-.007-4.035-1.727-6.907-6.822-6.898-3.127.006-6.201,1.928-9.223,4.505l-.009-4.842-2.32.004-7.305,4.805.002,1.11,3.48-.006.024,13.417c.005,2.774-.448,3.481-3.322,3.89l.003,1.564,12.963-.023-.003-1.564ZM436.206,202.258c-3.279-.499-3.735-1.204-3.74-4.331l-.018-10.391c1.006-1.818,1.962-3.131,2.969-4.04.003,1.967,1.368,3.226,3.083,3.223,1.715-.003,3.377-1.368,3.372-3.991-.004-2.219-1.267-3.579-3.487-3.575-2.472.004-4.385,2.076-6.195,5.004l-.009-5.094-2.219.004-7.305,4.805.002,1.11,3.48-.006.024,13.417c.005,2.774-.448,3.481-3.322,3.89l.003,1.564,13.366-.024-.003-1.564ZM404.606,188.594c-.007-4.086,1.703-6.51,5.032-6.516,2.32-.004,3.786,1.658,4.397,4.935l-9.376,3.245c-.051-.555-.052-1.11-.053-1.664M420.413,199.31l-1.364-1.057c-1.359,1.566-3.425,2.629-5.796,2.633-4.64.008-7.27-3.518-8.236-8.106l15.123-5.071c-.312-5.346-4.252-8.265-9.245-8.256-7.011.012-12.146,5.671-12.134,12.682.012,6.961,4.46,12.249,12.278,12.235,4.792-.008,7.663-2.132,9.373-5.061M397.114,201.621l-.759-1.613c-1.361.608-2.571.912-3.63.914-2.371.004-2.978-1.205-2.981-2.87l-.027-15.182,6.406-.011-.005-2.875-6.406.011-.008-4.691-.908.002-9.069,5.968.003,1.614,3.682-.007.029,16.494c.006,3.279,1.875,5.041,5.557,5.034,2.875-.005,5.698-.968,8.116-2.789M378.039,196.51c-.008-4.691-3.895-6.147-7.528-7.3-3.583-1.154-6.056-1.906-6.061-4.529-.002-1.412,1.054-2.726,3.122-2.729,2.572-.005,4.845,1.555,7.574,4.627l1.31-.608-1.928-6.251h-.807s-.907.76-.907.76c-1.413-.603-3.028-.953-4.743-.95-5.347.009-8.821,3.092-8.813,7.733.008,4.691,3.895,6.046,7.528,7.25,3.583,1.204,6.056,1.906,6.061,4.579.003,1.665-1.256,2.928-3.677,2.932-3.379.006-5.956-2.209-9.04-6.138l-1.361.507,1.981,7.865.857-.002,1.461-1.062c1.666.804,3.533,1.255,5.601,1.251,5.145-.009,9.376-3.043,9.368-7.936M339.202,197.537c-.005-2.572,1.153-3.785,7.052-5.41l.013,7.314c-1.41,1.112-2.67,1.619-3.931,1.621-1.967.003-3.129-1.054-3.133-3.525M350.311,204.276c2.169-.004,4.487-1.017,5.999-2.079l-.456-1.412c-2.471.458-3.379.107-3.382-1.558l-.024-13.467c-.007-4.035-1.776-6.201-7.476-6.191-6.406.011-11.091,3.45-11.085,6.678.003,1.564,1.064,2.873,2.88,2.87,2.068-.004,3.074-1.367,3.375-2.73.3-1.564-.207-2.723-.964-3.378,1.26-.608,2.52-.912,3.832-.915,2.169-.004,3.229.751,3.233,2.718l.009,5.044c-9.025,2.235-13.157,4.21-13.149,9.002.007,3.682,2.381,5.645,6.113,5.638,2.371-.004,5.093-1.018,7.41-2.838.356,1.664,1.518,2.62,3.687,2.616M314.523,188.753c-.007-4.086,1.703-6.51,5.032-6.516,2.32-.004,3.786,1.658,4.397,4.935l-9.376,3.245c-.051-.555-.052-1.11-.053-1.664M330.329,199.469l-1.364-1.057c-1.359,1.566-3.425,2.629-5.796,2.633-4.64.008-7.27-3.518-8.236-8.106l15.123-5.071c-.312-5.346-4.252-8.265-9.245-8.256-7.011.012-12.146,5.671-12.134,12.682.012,6.961,4.46,12.249,12.278,12.235,4.792-.008,7.663-2.132,9.373-5.061M290.183,202.516c-2.876-.398-3.331-1.104-3.336-3.878l-.021-11.702c2.417-2.224,4.281-3.337,6.4-3.34,2.472-.004,3.18,1.255,3.184,3.525l.02,11.5c.005,2.774-.448,3.481-3.322,3.89l.003,1.564,12.963-.023-.003-1.564c-2.876-.398-3.331-1.104-3.336-3.878l-.021-12.055c-.007-4.035-1.727-6.907-6.822-6.898-3.077.005-6.1,1.827-9.071,4.354l-.035-19.974-1.866.003-8.111,5.311.002,1.11,3.682-.007.05,28.196c.005,2.774-.448,3.481-3.322,3.89l.003,1.564,12.963-.023-.003-1.564ZM275.706,201.836l-.759-1.613c-1.361.608-2.571.912-3.63.914-2.371.004-2.978-1.205-2.981-2.87l-.027-15.182,6.406-.011-.005-2.875-6.406.011-.008-4.691-.908.002-9.069,5.968.003,1.614,3.682-.007.029,16.494c.006,3.279,1.875,5.041,5.557,5.034,2.875-.005,5.698-.968,8.116-2.789M250.993,202.585c-3.279-.499-3.735-1.204-3.74-4.331l-.018-10.391c1.006-1.818,1.962-3.131,2.969-4.04.003,1.967,1.368,3.226,3.083,3.223,1.715-.003,3.377-1.368,3.372-3.991-.004-2.219-1.267-3.579-3.487-3.575-2.472.004-4.385,2.076-6.195,5.004l-.009-5.094-2.219.004-7.305,4.805.002,1.11,3.48-.006.024,13.417c.005,2.774-.448,3.481-3.322,3.89l.003,1.564,13.366-.024-.003-1.564ZM214.553,189.687c-.008-4.54,1.954-7.418,6.09-7.425,5.347-.009,6.922,6.545,6.932,12.547.008,4.54-1.954,7.418-6.09,7.425-5.347.009-6.922-6.545-6.932-12.547M233.875,191.922c-.012-6.608-4.46-12.148-12.581-12.134-8.171.014-13.053,5.925-13.041,12.784.012,6.608,4.46,12.148,12.581,12.134,8.171-.014,13.053-5.925,13.041-12.784M200.961,176.193c-.01-5.901,1.651-7.417,4.525-8.23l-.003-1.564-12.206.022.003,1.564c2.876.802,4.544,2.312,4.554,8.213l.031,17.755-25.77-25.931c-1.415-1.41-1.97-1.56-2.878-1.559l-9.533.017.003,1.564c2.068.198,3.28,1.003,5.655,3.268.758.705,1.466,1.561,1.468,2.973l.036,20.226c.01,5.901-1.651,7.418-4.525,8.23l.003,1.564,12.206-.022-.003-1.564c-2.876-.802-4.544-2.312-4.554-8.214l-.034-19.066,29.004,29.052,2.068-.004-.05-28.297Z"/>
  </g>
</svg>