<svg width="52" height="52" viewBox="0 0 52 52" fill="none" xmlns="http://www.w3.org/2000/svg">
<path d="M1 26C1 29.283 1.64664 32.5339 2.90301 35.5671C4.15938 38.6002 6.00087 41.3562 8.32233 43.6777C10.6438 45.9991 13.3998 47.8406 16.4329 49.097C19.4661 50.3534 22.717 51 26 51C29.283 51 32.5339 50.3534 35.5671 49.097C38.6002 47.8406 41.3562 45.9991 43.6777 43.6777C45.9991 41.3562 47.8406 38.6002 49.097 35.5671C50.3534 32.5339 51 29.283 51 26C51 19.3696 48.3661 13.0107 43.6777 8.32233C38.9893 3.63392 32.6304 1 26 1C19.3696 1 13.0107 3.63392 8.32233 8.32233C3.63392 13.0107 1 19.3696 1 26Z" stroke="#E7E4DC" stroke-width="2" stroke-linejoin="round"/>
<path d="M1 26C1 29.283 1.64664 32.5339 2.90301 35.5671C4.15938 38.6002 6.00087 41.3562 8.32233 43.6777C10.6438 45.9991 13.3998 47.8406 16.4329 49.097C19.4661 50.3534 22.717 51 26 51C29.283 51 32.5339 50.3534 35.5671 49.097C38.6002 47.8406 41.3562 45.9991 43.6777 43.6777C45.9991 41.3562 47.8406 38.6002 49.097 35.5671C50.3534 32.5339 51 29.283 51 26C51 19.3696 48.3661 13.0107 43.6777 8.32233C38.9893 3.63392 32.6304 1 26 1C19.3696 1 13.0107 3.63392 8.32233 8.32233C3.63392 13.0107 1 19.3696 1 26Z" stroke="#F5F3EE" stroke-width="2" stroke-linejoin="round"/>
<path d="M13.2461 26.7144H40.1835" stroke="#E7E4DC" stroke-width="2" stroke-linecap="round" stroke-linejoin="round"/>
<path d="M13.2461 26.7144H40.1835" stroke="#F5F3EE" stroke-width="2" stroke-linecap="round" stroke-linejoin="round"/>
<path d="M28.0613 14.5925L40.1831 26.7144L28.0613 38.8362" stroke="#E7E4DC" stroke-width="2" stroke-linecap="round" stroke-linejoin="round"/>
<path d="M28.0613 14.5925L40.1831 26.7144L28.0613 38.8362" stroke="#F5F3EE" stroke-width="2" stroke-linecap="round" stroke-linejoin="round"/>
</svg>
